<svg width="21" height="25" viewBox="0 0 21 25" fill="none" xmlns="http://www.w3.org/2000/svg">
<path d="M3.6333 23.0552C2.5708 23.0552 1.77116 22.784 1.23438 22.2417C0.697591 21.6994 0.429199 20.8914 0.429199 19.8179V3.40723C0.429199 2.33366 0.697591 1.52848 1.23438 0.991699C1.77669 0.449382 2.57633 0.178223 3.6333 0.178223H15.0552C16.1177 0.178223 16.9146 0.449382 17.4458 0.991699C17.9826 1.52848 18.251 2.33366 18.251 3.40723V14.6963C18.0462 14.4528 17.8193 14.2259 17.5703 14.0156C17.3268 13.8053 17.064 13.62 16.7817 13.4595V3.43213C16.7817 2.85661 16.624 2.41667 16.3086 2.1123C15.9987 1.80241 15.556 1.64746 14.9805 1.64746H3.70801C3.11035 1.64746 2.65934 1.80518 2.35498 2.12061C2.05615 2.4305 1.90674 2.86768 1.90674 3.43213V19.8096C1.90674 20.3851 2.05892 20.8223 2.36328 21.1211C2.66764 21.4255 3.11589 21.5776 3.70801 21.5776H8.67188C8.83236 21.8599 9.01774 22.1227 9.22803 22.3662C9.43831 22.6152 9.6652 22.8449 9.90869 23.0552H3.6333ZM19.3467 25.0059C19.0977 25.0059 18.8708 24.9035 18.666 24.6987L15.7026 21.7271L16.8896 20.6646L19.8364 23.6196C19.9194 23.7026 19.9858 23.7939 20.0356 23.8936C20.0854 23.9932 20.1104 24.0955 20.1104 24.2007C20.1104 24.4331 20.0384 24.624 19.8945 24.7734C19.7507 24.9284 19.568 25.0059 19.3467 25.0059ZM13.6357 23.0552C12.9993 23.0552 12.4017 22.9334 11.8428 22.6899C11.2839 22.452 10.7913 22.12 10.3652 21.6938C9.93913 21.2733 9.60433 20.7835 9.36084 20.2246C9.11735 19.6657 8.99561 19.068 8.99561 18.4316C8.99561 17.7952 9.11735 17.1976 9.36084 16.6387C9.60433 16.0798 9.93913 15.5872 10.3652 15.1611C10.7913 14.735 11.2839 14.403 11.8428 14.165C12.4017 13.9215 12.9993 13.7998 13.6357 13.7998C14.2721 13.7998 14.8698 13.9188 15.4287 14.1567C15.9876 14.3947 16.4774 14.7267 16.8979 15.1528C17.3241 15.5789 17.6561 16.0715 17.894 16.6304C18.132 17.1893 18.251 17.7897 18.251 18.4316C18.251 19.068 18.132 19.6657 17.894 20.2246C17.6561 20.7835 17.3241 21.2733 16.8979 21.6938C16.4774 22.12 15.9876 22.452 15.4287 22.6899C14.8698 22.9334 14.2721 23.0552 13.6357 23.0552ZM13.6357 21.7354C14.2389 21.7354 14.7896 21.5859 15.2876 21.2871C15.7856 20.9883 16.1813 20.5871 16.4746 20.0835C16.7734 19.5854 16.9229 19.0348 16.9229 18.4316C16.9229 17.8285 16.7734 17.2778 16.4746 16.7798C16.1758 16.2762 15.7773 15.875 15.2793 15.5762C14.7812 15.2773 14.2334 15.1279 13.6357 15.1279C13.027 15.1279 12.4709 15.2773 11.9673 15.5762C11.4637 15.875 11.0625 16.2762 10.7637 16.7798C10.4648 17.2778 10.3154 17.8285 10.3154 18.4316C10.3154 19.0348 10.4648 19.5854 10.7637 20.0835C11.0625 20.5871 11.4637 20.9883 11.9673 21.2871C12.4709 21.5859 13.027 21.7354 13.6357 21.7354ZM5.19385 9.74072C5.0223 9.74072 4.88118 9.68538 4.77051 9.57471C4.65983 9.4585 4.60449 9.32015 4.60449 9.15967C4.60449 8.99919 4.65983 8.86361 4.77051 8.75293C4.88118 8.64225 5.0223 8.58691 5.19385 8.58691H13.5029C13.6689 8.58691 13.8073 8.64225 13.918 8.75293C14.0286 8.86361 14.084 8.99919 14.084 9.15967C14.084 9.32015 14.0286 9.4585 13.918 9.57471C13.8073 9.68538 13.6689 9.74072 13.5029 9.74072H5.19385ZM5.19385 5.98877C5.0223 5.98877 4.88118 5.93343 4.77051 5.82275C4.65983 5.70654 4.60449 5.5682 4.60449 5.40771C4.60449 5.24723 4.65983 5.11442 4.77051 5.00928C4.88118 4.8986 5.0223 4.84326 5.19385 4.84326H13.5029C13.6689 4.84326 13.8073 4.8986 13.918 5.00928C14.0286 5.11442 14.084 5.24723 14.084 5.40771C14.084 5.5682 14.0286 5.70654 13.918 5.82275C13.8073 5.93343 13.6689 5.98877 13.5029 5.98877H5.19385Z" fill="black"/>
</svg>
