<svg width="18" height="24" viewBox="0 0 18 24" fill="none" xmlns="http://www.w3.org/2000/svg">
<path d="M8.51025 23.5156C7.25407 23.5156 6.1141 23.3441 5.09033 23.001C4.06657 22.6634 3.18669 22.1764 2.45068 21.54C1.72021 20.9092 1.15853 20.151 0.765625 19.2656C0.372721 18.3857 0.17627 17.4062 0.17627 16.3271C0.17627 15.5635 0.237142 14.8883 0.358887 14.3018C0.486165 13.7096 0.641113 13.1756 0.82373 12.6997C1.00635 12.2238 1.18896 11.7728 1.37158 11.3467C1.5542 10.9206 1.70638 10.4917 1.82812 10.0601C1.9554 9.62842 2.01904 9.16081 2.01904 8.65723C2.01904 8.41927 2.00521 8.15918 1.97754 7.87695C1.94987 7.59473 1.93604 7.38444 1.93604 7.24609C1.93604 7.04134 1.99414 6.87533 2.11035 6.74805C2.2321 6.61523 2.38981 6.54883 2.5835 6.54883C2.93766 6.54883 3.30843 6.65951 3.6958 6.88086C4.08317 7.10221 4.43734 7.40934 4.7583 7.80225C5.07926 8.19515 5.32275 8.64893 5.48877 9.16357L4.99072 9.26318C5.17887 8.96989 5.30062 8.69873 5.35596 8.44971C5.41683 8.19515 5.44727 7.93506 5.44727 7.66943C5.44173 6.98324 5.31169 6.32194 5.05713 5.68555C4.80811 5.04915 4.48714 4.4432 4.09424 3.86768C3.70133 3.28662 3.29183 2.74154 2.86572 2.23242C2.76058 2.10514 2.68034 1.98063 2.625 1.85889C2.56966 1.73714 2.54199 1.6154 2.54199 1.49365C2.54199 1.18376 2.6748 0.948568 2.94043 0.788086C3.20605 0.627604 3.56852 0.547363 4.02783 0.547363C4.97965 0.547363 5.97852 0.660807 7.02441 0.887695C8.07031 1.11458 9.10791 1.46322 10.1372 1.93359C11.1665 2.40397 12.1405 3.00439 13.0591 3.73486C13.9832 4.4598 14.8022 5.32031 15.5161 6.31641C16.23 7.3125 16.7917 8.45247 17.2012 9.73633C17.6107 11.0146 17.8154 12.4451 17.8154 14.0278C17.8154 15.4556 17.5941 16.7533 17.1514 17.9209C16.7087 19.083 16.075 20.0819 15.2505 20.9175C14.4315 21.7531 13.452 22.395 12.312 22.8433C11.172 23.2915 9.90479 23.5156 8.51025 23.5156ZM8.60156 22.2207C9.77474 22.2207 10.84 22.0243 11.7974 21.6313C12.7603 21.2384 13.5876 20.6768 14.2793 19.9463C14.9766 19.2214 15.5106 18.3553 15.8813 17.3481C16.2576 16.3354 16.4458 15.2148 16.4458 13.9863C16.4458 12.5863 16.2438 11.272 15.8398 10.0435C15.4359 8.81494 14.8548 7.69987 14.0967 6.69824C13.3441 5.69661 12.4393 4.83333 11.3823 4.1084C10.3254 3.38346 9.13835 2.82178 7.82129 2.42334C6.50423 2.0249 5.0848 1.81738 3.56299 1.80078L3.81201 1.50195C4.40413 2.09408 4.90771 2.7277 5.32275 3.40283C5.73779 4.07796 6.05599 4.78353 6.27734 5.51953C6.4987 6.25553 6.60938 7.01644 6.60938 7.80225C6.60938 8.14535 6.57064 8.50781 6.49316 8.88965C6.42122 9.26595 6.32161 9.62012 6.19434 9.95215C6.06706 10.2842 5.91764 10.5553 5.74609 10.7656C5.58008 10.9704 5.40299 11.0728 5.21484 11.0728C5.13737 11.0728 5.07096 11.0506 5.01562 11.0063C4.96582 10.9565 4.92985 10.8791 4.90771 10.7739C4.78597 10.3035 4.62549 9.88851 4.42627 9.52881C4.23258 9.16357 4.01123 8.85368 3.76221 8.59912C3.51318 8.34456 3.24756 8.14535 2.96533 8.00146L3.18945 7.61963C3.23372 7.80225 3.27246 7.99316 3.30566 8.19238C3.33887 8.3916 3.35547 8.59359 3.35547 8.79834C3.35547 9.38493 3.29183 9.91064 3.16455 10.3755C3.04281 10.8348 2.88786 11.2747 2.69971 11.6953C2.51709 12.1104 2.33171 12.5392 2.14355 12.9819C1.9554 13.4246 1.79769 13.9172 1.67041 14.4595C1.54867 14.9963 1.48779 15.6188 1.48779 16.3271C1.48779 17.207 1.65658 18.0094 1.99414 18.7344C2.33171 19.4538 2.81315 20.0736 3.43848 20.5938C4.06934 21.1139 4.81917 21.5151 5.68799 21.7974C6.56234 22.0796 7.53353 22.2207 8.60156 22.2207ZM8.72607 20.5024C7.75212 20.5024 6.96908 20.234 6.37695 19.6973C5.78483 19.1605 5.48877 18.4521 5.48877 17.5723C5.48877 17.113 5.55518 16.7173 5.68799 16.3853C5.8208 16.0532 5.97575 15.7544 6.15283 15.4888C6.33545 15.2231 6.50423 14.9658 6.65918 14.7168C6.81413 14.4622 6.91374 14.1883 6.95801 13.895C6.96354 13.8452 6.98014 13.8148 7.00781 13.8037C7.04102 13.7871 7.07699 13.7954 7.11572 13.8286C7.35921 14.0389 7.56396 14.2769 7.72998 14.5425C7.90153 14.8026 8.05371 15.0848 8.18652 15.3892C8.46322 15.0129 8.65967 14.4595 8.77588 13.729C8.89762 12.9985 8.90869 12.1989 8.80908 11.3301C8.80355 11.2858 8.81462 11.2526 8.84229 11.2305C8.86995 11.2028 8.90592 11.2 8.9502 11.2222C9.71387 11.5819 10.353 12.055 10.8677 12.6416C11.3823 13.2227 11.7697 13.859 12.0298 14.5508C12.2954 15.2425 12.4282 15.9287 12.4282 16.6094C12.4282 17.3011 12.2926 17.943 12.0215 18.5352C11.7503 19.1273 11.3408 19.6032 10.793 19.9629C10.2451 20.3226 9.55615 20.5024 8.72607 20.5024Z" fill="black"/>
</svg>
