<svg width="22" height="17" viewBox="0 0 22 17" fill="none" xmlns="http://www.w3.org/2000/svg">
<path d="M15.4567 5.58691C15.5856 5.58691 15.691 5.63672 15.7731 5.73633C15.861 5.83008 15.9049 5.93555 15.9049 6.05273C15.9049 6.17578 15.861 6.28125 15.7731 6.36914C15.691 6.45703 15.5856 6.50098 15.4567 6.50098H5.8678C5.74475 6.50098 5.63928 6.45703 5.55139 6.36914C5.46936 6.28125 5.42834 6.17578 5.42834 6.05273C5.42834 5.93555 5.46936 5.83008 5.55139 5.73633C5.63928 5.63672 5.74475 5.58691 5.8678 5.58691H15.4567ZM14.3229 3.6709C14.4401 3.6709 14.5397 3.71191 14.6217 3.79395C14.7037 3.87598 14.7448 3.97852 14.7448 4.10156C14.7448 4.21875 14.7037 4.32129 14.6217 4.40918C14.5397 4.49121 14.4401 4.53223 14.3229 4.53223H7.01917C6.89612 4.53223 6.79358 4.49121 6.71155 4.40918C6.62952 4.32129 6.5885 4.21875 6.5885 4.10156C6.5885 3.97852 6.62952 3.87598 6.71155 3.79395C6.79358 3.71191 6.89612 3.6709 7.01917 3.6709H14.3229ZM3.15198 16.3535C2.1969 16.3535 1.47327 16.1104 0.981079 15.624C0.494751 15.1436 0.251587 14.4316 0.251587 13.4883V8.27637C0.251587 7.94824 0.269165 7.67285 0.304321 7.4502C0.339478 7.22168 0.398071 7.0166 0.480103 6.83496C0.567993 6.64746 0.69104 6.45996 0.849243 6.27246L3.73206 2.72168C4.08948 2.27637 4.40588 1.92773 4.68127 1.67578C4.95667 1.42383 5.25842 1.24512 5.58655 1.13965C5.91467 1.03418 6.34534 0.981445 6.87854 0.981445H14.4459C14.9791 0.981445 15.4098 1.03418 15.7379 1.13965C16.0719 1.24512 16.3766 1.42383 16.652 1.67578C16.9274 1.92773 17.2467 2.27637 17.61 2.72168L20.484 6.27246C20.6422 6.45996 20.7623 6.64746 20.8444 6.83496C20.9323 7.0166 20.9938 7.22168 21.0289 7.4502C21.0641 7.67285 21.0817 7.94824 21.0817 8.27637V13.4883C21.0817 14.4316 20.8356 15.1436 20.3434 15.624C19.8571 16.1104 19.1364 16.3535 18.1813 16.3535H3.15198ZM3.23108 14.5957H18.0934C18.4918 14.5957 18.7994 14.4902 19.0162 14.2793C19.233 14.0684 19.3414 13.752 19.3414 13.3301V9.10254H14.0856C13.9918 9.62402 13.7867 10.0898 13.4703 10.5C13.1598 10.9102 12.7614 11.2354 12.275 11.4756C11.7946 11.71 11.2584 11.8271 10.6666 11.8271C10.0748 11.8271 9.5387 11.71 9.05823 11.4756C8.57776 11.2412 8.17932 10.9189 7.86292 10.5088C7.54651 10.0986 7.34143 9.62988 7.24768 9.10254H1.98303V13.3301C1.98303 13.752 2.0885 14.0684 2.29944 14.2793C2.51624 14.4902 2.82678 14.5957 3.23108 14.5957ZM10.6666 10.2188C11.0592 10.2188 11.399 10.1221 11.6862 9.92871C11.9733 9.72949 12.1959 9.48047 12.3541 9.18164C12.5123 8.87695 12.5914 8.56641 12.5914 8.25V8.22363C12.5914 8.05371 12.6442 7.90137 12.7496 7.7666C12.8551 7.62598 13.0221 7.55566 13.2506 7.55566H18.902C19.0426 7.55566 19.1276 7.50879 19.1569 7.41504C19.192 7.31543 19.1744 7.21875 19.1041 7.125L15.9225 3.14355C15.7233 2.89746 15.5094 2.71875 15.2809 2.60742C15.0524 2.49609 14.7887 2.44043 14.4899 2.44043H6.83459C6.54163 2.44043 6.27795 2.49609 6.04358 2.60742C5.81506 2.71875 5.60413 2.89746 5.41077 3.14355L2.23792 7.125C2.16174 7.21875 2.13831 7.31543 2.1676 7.41504C2.20276 7.50879 2.29065 7.55566 2.43127 7.55566H8.07385C8.30823 7.55566 8.47815 7.62598 8.58362 7.7666C8.69495 7.90137 8.75061 8.05371 8.75061 8.22363V8.25C8.75061 8.56641 8.82678 8.87695 8.97913 9.18164C9.13733 9.48047 9.35706 9.72949 9.63831 9.92871C9.92542 10.1221 10.2682 10.2188 10.6666 10.2188Z" fill="#1A87ED"/>
</svg>
