<svg width="21" height="18" viewBox="0 0 21 18" fill="none" xmlns="http://www.w3.org/2000/svg">
<path d="M10.8334 1.84277V17.2324C10.5404 17.2324 10.3031 17.1885 10.1215 17.1006C9.93982 17.0186 9.77869 16.9248 9.63806 16.8193C9.46814 16.6729 9.22791 16.5234 8.91736 16.3711C8.61267 16.2188 8.2406 16.0898 7.80115 15.9844C7.36755 15.8789 6.86951 15.8262 6.30701 15.8262C5.75623 15.8262 5.27283 15.8789 4.85681 15.9844C4.44666 16.0957 4.09509 16.2305 3.80212 16.3887C3.51501 16.5527 3.27185 16.7168 3.07263 16.8809C2.92029 16.9863 2.76794 17.0713 2.6156 17.1357C2.46912 17.2002 2.27576 17.2324 2.03552 17.2324C1.83044 17.2324 1.63708 17.1914 1.45544 17.1094C1.2738 17.0332 1.12732 16.9072 1.01599 16.7314C0.904663 16.5557 0.848999 16.3213 0.848999 16.0283V2.84473C0.995483 2.51074 1.23279 2.18262 1.56091 1.86035C1.8949 1.53809 2.30212 1.24512 2.78259 0.981445C3.26306 0.717773 3.80212 0.509766 4.39978 0.357422C4.99744 0.199219 5.63318 0.120117 6.30701 0.120117C6.98083 0.120117 7.61072 0.202148 8.19666 0.366211C8.78845 0.524414 9.30994 0.735352 9.76111 0.999023C10.2123 1.2627 10.5697 1.54395 10.8334 1.84277ZM2.76501 3.45117V15.0615C3.20447 14.7217 3.73181 14.4668 4.34705 14.2969C4.96814 14.127 5.62146 14.042 6.30701 14.042C6.99255 14.042 7.64587 14.127 8.26697 14.2969C8.88806 14.4609 9.42419 14.707 9.87537 15.0352V3.45117C9.82263 3.31055 9.70251 3.15234 9.51501 2.97656C9.32751 2.79492 9.07849 2.62207 8.76794 2.45801C8.4574 2.29395 8.09412 2.15918 7.6781 2.05371C7.26794 1.94824 6.81091 1.89551 6.30701 1.89551C5.8031 1.89551 5.34607 1.94824 4.93591 2.05371C4.53162 2.15918 4.17712 2.29395 3.87244 2.45801C3.56775 2.62207 3.32166 2.79492 3.13416 2.97656C2.94666 3.15234 2.82361 3.31055 2.76501 3.45117ZM10.8334 1.84277C11.0912 1.54395 11.4427 1.2627 11.8881 0.999023C12.3392 0.735352 12.8607 0.524414 13.4525 0.366211C14.0443 0.202148 14.6771 0.120117 15.351 0.120117C16.0248 0.120117 16.6605 0.199219 17.2582 0.357422C17.8558 0.509766 18.3949 0.717773 18.8754 0.981445C19.3558 1.24512 19.7601 1.53809 20.0883 1.86035C20.4222 2.18262 20.6625 2.51074 20.809 2.84473V16.0283C20.809 16.3213 20.7533 16.5557 20.642 16.7314C20.5306 16.9072 20.3842 17.0332 20.2025 17.1094C20.0209 17.1914 19.8246 17.2324 19.6136 17.2324C19.3793 17.2324 19.1859 17.2002 19.0336 17.1357C18.8812 17.0713 18.7318 16.9863 18.5853 16.8809C18.2982 16.6406 17.8939 16.4033 17.3724 16.1689C16.8568 15.9404 16.183 15.8262 15.351 15.8262C14.7885 15.8262 14.2904 15.8818 13.8568 15.9932C13.4232 16.1045 13.0541 16.2363 12.7494 16.3887C12.4447 16.541 12.2015 16.6846 12.0199 16.8193C11.8734 16.9189 11.7094 17.0127 11.5277 17.1006C11.3519 17.1885 11.1205 17.2324 10.8334 17.2324V1.84277ZM18.8929 3.45117C18.8344 3.31055 18.7113 3.15234 18.5238 2.97656C18.3363 2.79492 18.0902 2.62207 17.7855 2.45801C17.4808 2.29395 17.1234 2.15918 16.7133 2.05371C16.3031 1.94824 15.849 1.89551 15.351 1.89551C14.847 1.89551 14.3871 1.94824 13.9711 2.05371C13.5551 2.15918 13.1918 2.29395 12.8812 2.45801C12.5765 2.62207 12.3304 2.79492 12.1429 2.97656C11.9554 3.15234 11.8353 3.31055 11.7826 3.45117V15.0352C12.2396 14.707 12.7758 14.4609 13.391 14.2969C14.0121 14.127 14.6654 14.042 15.351 14.042C16.0365 14.042 16.6869 14.127 17.3021 14.2969C17.9174 14.4668 18.4476 14.7217 18.8929 15.0615V3.45117Z" fill="#1A87ED"/>
</svg>
