<svg width="20" height="20" viewBox="0 0 20 20" fill="none" xmlns="http://www.w3.org/2000/svg">
<path d="M3.46729 19.7769C2.39925 19.7769 1.59408 19.5085 1.05176 18.9717C0.50944 18.4404 0.238281 17.6436 0.238281 16.5811V3.46582C0.238281 2.40332 0.50944 1.60645 1.05176 1.0752C1.59408 0.538411 2.39925 0.27002 3.46729 0.27002H16.5161C17.5952 0.27002 18.4032 0.538411 18.9399 1.0752C19.4823 1.61198 19.7534 2.40885 19.7534 3.46582V16.5811C19.7534 17.638 19.4823 18.4349 18.9399 18.9717C18.4032 19.5085 17.5952 19.7769 16.5161 19.7769H3.46729ZM3.50049 18.3076H16.4912C17.0612 18.3076 17.5011 18.1554 17.811 17.8511C18.1265 17.5467 18.2842 17.0985 18.2842 16.5063V3.54053C18.2842 2.9484 18.1265 2.50016 17.811 2.1958C17.5011 1.89144 17.0612 1.73926 16.4912 1.73926H3.50049C2.91943 1.73926 2.47396 1.89144 2.16406 2.1958C1.8597 2.50016 1.70752 2.9484 1.70752 3.54053V16.5063C1.70752 17.0985 1.8597 17.5467 2.16406 17.8511C2.47396 18.1554 2.91943 18.3076 3.50049 18.3076ZM6.8623 15.5186C6.67969 15.6514 6.50537 15.7039 6.33936 15.6763C6.17334 15.6431 6.04606 15.5518 5.95752 15.4023C5.87451 15.2529 5.86898 15.0675 5.94092 14.8462L7.17773 11.1523L4.01514 8.89453C3.84359 8.76725 3.74674 8.61784 3.72461 8.44629C3.70247 8.26921 3.74398 8.11426 3.84912 7.98145C3.9598 7.84863 4.13135 7.78499 4.36377 7.79053L8.24854 7.81543L9.43555 4.09668C9.50195 3.89193 9.61263 3.75635 9.76758 3.68994C9.92253 3.618 10.0775 3.618 10.2324 3.68994C10.3874 3.75635 10.498 3.89193 10.5645 4.09668L11.7515 7.81543L15.6362 7.79053C15.8687 7.78499 16.0374 7.8514 16.1426 7.98975C16.2533 8.12256 16.2948 8.27751 16.2671 8.45459C16.245 8.62614 16.1536 8.77002 15.9932 8.88623L12.8223 11.1523L14.0591 14.8462C14.131 15.0675 14.1255 15.2529 14.0425 15.4023C13.9595 15.5518 13.8322 15.6431 13.6606 15.6763C13.4946 15.7039 13.3203 15.6514 13.1377 15.5186L10 13.2192L6.8623 15.5186Z" fill="black"/>
</svg>
